subject11_noload_free_trial03_ground_reaction																		
version=1																		
nRows=71																		
nColumns=19																		
inDegrees=no																		
endheader																		
time	ground_force_r_vx	ground_force_r_vy	ground_force_r_vz	ground_force_r_px	ground_force_r_py	ground_force_r_pz	ground_torque_r_x	ground_torque_r_y	ground_torque_r_z	ground_force_l_vx	ground_force_l_vy	ground_force_l_vz	ground_force_l_px	ground_force_l_py	ground_force_l_pz	ground_torque_l_x	ground_torque_l_y	ground_torque_l_z
1.475	-19.924962	285.047999	13.7851	1.484179	0	-0.194377	0	-1.740196	0	155.658827	714.56023	26.014414	0.980006	0	-0.314713	0	-0.07025	0
1.4755	-20.945659	287.845136	13.731818	1.484436	0	-0.194336	0	-1.75806	0	155.649668	711.020292	25.805175	0.980112	0	-0.314685	0	-0.075696	0
1.476	-21.96449	290.662828	13.672457	1.484695	0	-0.194294	0	-1.775976	0	155.629286	707.451087	25.594244	0.980218	0	-0.314658	0	-0.081321	0
1.4765	-22.981007	293.50167	13.606982	1.484956	0	-0.194249	0	-1.793929	0	155.597543	703.852773	25.381664	0.980325	0	-0.31463	0	-0.08712	0
1.477	-23.994787	296.362219	13.53536	1.485218	0	-0.194202	0	-1.811905	0	155.554301	700.225515	25.167482	0.980432	0	-0.314603	0	-0.093086	0
1.4775	-25.00543	299.244993	13.457557	1.485483	0	-0.194154	0	-1.82989	0	155.499424	696.569482	24.951747	0.980539	0	-0.314576	0	-0.099213	0
1.478	-26.012561	302.150471	13.373534	1.485748	0	-0.194104	0	-1.847868	0	155.432771	692.88485	24.734508	0.980646	0	-0.314549	0	-0.105494	0
1.4785	-27.015829	305.079093	13.283257	1.486016	0	-0.194052	0	-1.865824	0	155.354203	689.171801	24.515819	0.980753	0	-0.314522	0	-0.111924	0
1.479	-28.014911	308.031254	13.186688	1.486285	0	-0.193998	0	-1.883742	0	155.26358	685.430523	24.295733	0.980861	0	-0.314495	0	-0.118496	0
1.4795	-29.009508	311.007308	13.083789	1.486555	0	-0.193943	0	-1.901608	0	155.160763	681.661211	24.074306	0.98097	0	-0.314468	0	-0.125204	0
1.48	-29.999351	314.007563	12.974521	1.486826	0	-0.193886	0	-1.919407	0	155.045612	677.864066	23.851596	0.981078	0	-0.314441	0	-0.13204	0
1.4805	-30.984194	317.03228	12.858845	1.487099	0	-0.193827	0	-1.937123	0	154.917987	674.039297	23.627664	0.981187	0	-0.314415	0	-0.138999	0
1.481	-31.96382	320.081673	12.736722	1.487372	0	-0.193767	0	-1.954741	0	154.777752	670.18712	23.402571	0.981296	0	-0.314388	0	-0.146076	0
1.4815	-32.938038	323.15591	12.608112	1.487647	0	-0.193705	0	-1.972244	0	154.624766	666.307762	23.17638	0.981406	0	-0.314362	0	-0.153264	0
1.482	-33.906678	326.255107	12.472979	1.487922	0	-0.193641	0	-1.989617	0	154.458893	662.401454	22.949154	0.981516	0	-0.314336	0	-0.160558	0
1.4825	-34.869598	329.379332	12.33129	1.488199	0	-0.193577	0	-2.006843	0	154.279997	658.46844	22.720958	0.981626	0	-0.31431	0	-0.167953	0
1.483	-35.826676	332.528602	12.183014	1.488476	0	-0.193511	0	-2.023903	0	154.087943	654.50897	22.491861	0.981737	0	-0.314284	0	-0.175443	0
1.4835	-36.777816	335.702893	12.028125	1.488754	0	-0.193443	0	-2.040782	0	153.882597	650.523306	22.261929	0.981848	0	-0.314259	0	-0.18302	0
1.484	-37.722941	338.902136	11.866603	1.489033	0	-0.193375	0	-2.057461	0	153.663826	646.511723	22.031231	0.981959	0	-0.314233	0	-0.190679	0
1.4845	-38.662	342.126222	11.698428	1.489312	0	-0.193305	0	-2.073925	0	153.431496	642.474504	21.799839	0.982071	0	-0.314208	0	-0.198413	0
1.485	-39.594964	345.375002	11.523583	1.489592	0	-0.193234	0	-2.090158	0	153.185477	638.411945	21.567825	0.982183	0	-0.314183	0	-0.206216	0
1.4855	-40.521823	348.648288	11.342053	1.489872	0	-0.193162	0	-2.106145	0	152.925637	634.324355	21.335261	0.982296	0	-0.314158	0	-0.214081	0
1.486	-41.442593	351.945849	11.153822	1.490153	0	-0.193089	0	-2.121875	0	152.651847	630.212052	21.102221	0.982409	0	-0.314133	0	-0.222002	0
1.4865	-42.357305	355.26742	10.958879	1.490434	0	-0.193014	0	-2.137335	0	152.363977	626.075366	20.86878	0.982523	0	-0.314108	0	-0.229974	0
1.487	-43.266011	358.612694	10.757214	1.490715	0	-0.192939	0	-2.152513	0	152.061899	621.91464	20.635012	0.982637	0	-0.314084	0	-0.237991	0
1.4875	-44.168776	361.981327	10.548823	1.490996	0	-0.192863	0	-2.167397	0	151.745489	617.730229	20.400995	0.982751	0	-0.31406	0	-0.246046	0
1.488	-45.065683	365.372938	10.333707	1.491278	0	-0.192786	0	-2.181976	0	151.414622	613.522505	20.166807	0.982866	0	-0.314036	0	-0.254133	0
1.4885	-45.956822	368.787114	10.111874	1.49156	0	-0.192708	0	-2.196239	0	151.069177	609.291852	19.932528	0.982982	0	-0.314012	0	-0.262248	0
1.489	-46.842296	372.223413	9.883337	1.491842	0	-0.19263	0	-2.210174	0	150.709039	605.038666	19.698238	0.983098	0	-0.313988	0	-0.270385	0
1.4895	-47.72222	375.681364	9.648117	1.492124	0	-0.192551	0	-2.223772	0	150.334089	600.763355	19.464019	0.983214	0	-0.313964	0	-0.278538	0
1.49	-48.596713	379.160465	9.406237	1.492407	0	-0.192471	0	-2.237026	0	149.944217	596.466342	19.229953	0.983331	0	-0.313941	0	-0.286701	0
1.4905	-49.465904	382.660192	9.157732	1.492689	0	-0.19239	0	-2.249929	0	149.539312	592.148061	18.99612	0.983449	0	-0.313918	0	-0.29487	0
1.491	-50.329926	386.179997	8.902638	1.492971	0	-0.192309	0	-2.262478	0	149.119269	587.808959	18.762605	0.983568	0	-0.313895	0	-0.303037	0
1.4915	-51.188919	389.719312	8.640999	1.493253	0	-0.192228	0	-2.274666	0	148.683987	583.449499	18.529491	0.983687	0	-0.313872	0	-0.311196	0
1.492	-52.043028	393.277549	8.372865	1.493536	0	-0.192145	0	-2.286491	0	148.233368	579.070152	18.296861	0.983807	0	-0.313849	0	-0.319339	0
1.4925	-52.892403	396.854105	8.098288	1.493818	0	-0.192063	0	-2.297948	0	147.767321	574.671407	18.064803	0.983928	0	-0.313827	0	-0.327458	0
1.493	-53.737199	400.44836	7.817325	1.4941	0	-0.19198	0	-2.309034	0	147.285759	570.253764	17.833399	0.984049	0	-0.313804	0	-0.335547	0
1.4935	-54.577572	404.059684	7.530035	1.494381	0	-0.191897	0	-2.319749	0	146.788597	565.817743	17.602734	0.984171	0	-0.313782	0	-0.343596	0
1.494	-55.41368	407.687437	7.236484	1.494663	0	-0.191813	0	-2.330089	0	146.275756	561.363877	17.37289	0.984294	0	-0.31376	0	-0.351597	0
1.4945	-56.245679	411.330972	6.93674	1.494944	0	-0.191729	0	-2.340056	0	145.747161	556.89272	17.143947	0.984418	0	-0.313739	0	-0.359545	0
1.495	-57.07372	414.989638	6.630878	1.495225	0	-0.191645	0	-2.349647	0	145.202741	552.404838	16.915984	0.984543	0	-0.313717	0	-0.36743	0
1.4955	-57.897953	418.662778	6.318976	1.495506	0	-0.19156	0	-2.358865	0	144.64243	547.900812	16.689076	0.984668	0	-0.313696	0	-0.375247	0
1.496	-58.718518	422.349735	6.001118	1.495787	0	-0.191476	0	-2.36771	0	144.066168	543.381237	16.463298	0.984795	0	-0.313675	0	-0.382989	0
1.4965	-59.535553	426.049846	5.677391	1.496067	0	-0.191391	0	-2.376184	0	143.4739	538.846721	16.238722	0.984922	0	-0.313654	0	-0.390649	0
1.497	-60.349188	429.76245	5.347884	1.496348	0	-0.191306	0	-2.38429	0	142.865578	534.297891	16.015419	0.985051	0	-0.313634	0	-0.398222	0
1.4975	-61.159547	433.486884	5.012693	1.496627	0	-0.191221	0	-2.392032	0	142.24116	529.735389	15.79346	0.98518	0	-0.313614	0	-0.405701	0
1.498	-61.966746	437.222484	4.671912	1.496907	0	-0.191136	0	-2.399414	0	141.600615	525.159875	15.572914	0.985311	0	-0.313594	0	-0.413081	0
1.4985	-62.770892	440.968588	4.325643	1.497187	0	-0.191051	0	-2.406443	0	140.943917	520.572023	15.35385	0.985443	0	-0.313574	0	-0.420358	0
1.499	-63.572084	444.72453	3.973988	1.497466	0	-0.190966	0	-2.413124	0	140.271052	515.972522	15.136336	0.985575	0	-0.313554	0	-0.427527	0
1.4995	-64.370411	448.489648	3.617057	1.497745	0	-0.190881	0	-2.419466	0	139.582014	511.362073	14.920435	0.98571	0	-0.313535	0	-0.434584	0
1.5	-65.165949	452.26328	3.254961	1.498024	0	-0.190795	0	-2.425476	0	138.876811	506.741392	14.70621	0.985845	0	-0.313516	0	-0.441526	0
1.5005	-65.958767	456.044765	2.887819	1.498303	0	-0.19071	0	-2.431164	0	138.15546	502.111208	14.49372	0.985981	0	-0.313498	0	-0.44835	0
1.501	-66.74892	459.83345	2.515752	1.498582	0	-0.190626	0	-2.436538	0	137.417989	497.472263	14.283018	0.986119	0	-0.313479	0	-0.455054	0
1.5015	-67.536455	463.628681	2.13889	1.49886	0	-0.190541	0	-2.441608	0	136.664442	492.825315	14.074159	0.986258	0	-0.313461	0	-0.461635	0
1.502	-68.321404	467.42981	1.757367	1.499138	0	-0.190456	0	-2.446382	0	135.894872	488.171137	13.867191	0.986399	0	-0.313443	0	-0.468092	0
1.5025	-69.103789	471.236188	1.371324	1.499416	0	-0.190372	0	-2.45087	0	135.109346	483.510515	13.662161	0.986541	0	-0.313426	0	-0.474425	0
1.503	-69.883622	475.047165	0.980906	1.499694	0	-0.190287	0	-2.455078	0	134.307944	478.844249	13.459112	0.986684	0	-0.313408	0	-0.480632	0
1.5035	-70.660903	478.862094	0.586261	1.499972	0	-0.190203	0	-2.459016	0	133.490759	474.173152	13.258086	0.986829	0	-0.313391	0	-0.486714	0
1.504	-71.435624	482.680327	0.187544	1.500249	0	-0.190119	0	-2.462692	0	132.657899	469.498048	13.059119	0.986975	0	-0.313375	0	-0.492672	0
1.5045	-72.207765	486.501214	-0.215089	1.500526	0	-0.190036	0	-2.466116	0	131.809484	464.819768	12.862248	0.987123	0	-0.313358	0	-0.498506	0
1.505	-72.977302	490.32411	-0.621474	1.500802	0	-0.189952	0	-2.469295	0	130.945647	460.139153	12.667504	0.987273	0	-0.313342	0	-0.504217	0
1.5055	-73.744197	494.148367	-1.031445	1.501078	0	-0.189869	0	-2.472241	0	130.066536	455.45705	12.474917	0.987424	0	-0.313326	0	-0.509806	0
1.506	-74.508407	497.973337	-1.444832	1.501354	0	-0.189787	0	-2.474964	0	129.172316	450.77431	12.284516	0.987577	0	-0.31331	0	-0.515275	0
1.5065	-75.26988	501.798376	-1.861459	1.501629	0	-0.189704	0	-2.477475	0	128.263166	446.091792	12.096326	0.987731	0	-0.313295	0	-0.520625	0
1.507	-76.028557	505.622838	-2.281149	1.501904	0	-0.189622	0	-2.479787	0	127.339281	441.410359	11.91037	0.987888	0	-0.313279	0	-0.52586	0
1.5075	-76.784372	509.446074	-2.703719	1.502178	0	-0.189541	0	-2.481914	0	126.400878	436.730877	11.726672	0.988046	0	-0.313264	0	-0.530982	0
1.508	-77.537251	513.267439	-3.128984	1.502452	0	-0.189459	0	-2.483868	0	125.448192	432.05422	11.545251	0.988205	0	-0.31325	0	-0.535995	0
1.5085	-78.287116	517.086281	-3.556755	1.502725	0	-0.189379	0	-2.485663	0	124.48148	427.381265	11.366126	0.988367	0	-0.313235	0	-0.540903	0
1.509	-79.03388	520.901952	-3.986845	1.502997	0	-0.189298	0	-2.487311	0	123.501023	422.712893	11.189315	0.98853	0	-0.313221	0	-0.545708	0
1.5095	-79.777452	524.713803	-4.419061	1.503269	0	-0.189218	0	-2.488825	0	122.507123	418.049984	11.014835	0.988696	0	-0.313207	0	-0.550415	0
1.51	-80.517736	528.521185	-4.85321	1.50354	0	-0.189139	0	-2.490219	0	121.500102	413.393418	10.8427	0.988863	0	-0.313193	0	-0.555027	0
